<svg version="1.1" id="Layer_1" xmlns="http://www.w3.org/2000/svg" xmlns:xlink="http://www.w3.org/1999/xlink" x="0px" y="0px"
	 width="100%" viewBox="0 0 500 500" enable-background="new 0 0 500 500" xml:space="preserve">
<path fill="none" opacity="1.000000" stroke="#000000" stroke-linecap="round" stroke-linejoin="round" stroke-width="9.000000"
	d="
M128.000000,206.000000 
	C125.587402,211.654312 119.811142,211.571274 115.490364,211.719986 
	C105.998886,212.046692 96.348984,213.334579 86.951630,209.622452 
	C80.159996,206.939636 74.233658,203.472504 70.022789,197.483978 
	C65.843651,191.540588 60.778355,187.650650 52.993423,188.960922 
	C52.036747,189.121918 50.990135,188.748566 49.825859,188.602921 
	C46.365051,193.787964 43.135937,198.618820 42.961647,205.987259 
	C42.815224,212.177780 39.116081,218.660675 36.828609,224.937546 
	C35.198780,229.409851 33.752102,233.978836 33.175243,238.522247 
	C31.722141,249.967041 27.199612,260.254486 22.460356,270.481628 
	C10.168379,297.007324 12.270848,322.270111 28.472672,346.518250 
	C31.880810,351.619019 35.957783,354.127991 42.511703,353.666046 
	C51.798904,353.011505 61.166672,353.494843 70.500000,353.503204 
	C73.166832,353.505615 75.764046,353.175995 76.637421,356.968353 
	C77.083694,358.906158 79.642891,358.959198 81.500206,358.973541 
	C89.499725,359.035461 97.500244,359.034424 105.499847,358.978149 
	C107.781967,358.962097 110.248726,358.444275 111.398666,356.441803 
	C112.651863,354.259644 113.988731,354.868927 115.493149,355.515930 
	C122.331825,358.457001 129.534943,357.009796 136.487747,356.713043 
	C139.560394,356.581879 142.468384,353.279022 145.506302,351.510834 
	C152.701736,347.322998 159.806595,343.115906 168.493408,342.417938 
	C177.794785,341.670624 185.728897,343.219849 193.170105,349.807861 
	C201.361664,357.060181 210.268967,364.305328 222.007187,364.842896 
	C227.246033,365.082794 231.686356,366.006561 236.682556,368.054688 
	C243.122253,370.694550 250.863220,369.451630 257.905548,368.197205 
	C258.301239,366.409729 258.651031,364.829681 259.000397,363.249817 
	C265.188538,361.067841 266.082581,361.230988 268.906464,366.549652 
	C269.721405,368.084595 271.005737,368.369232 272.003387,368.404633 
	C277.584625,368.602783 283.176544,368.500000 288.558563,368.500000 
	C291.014465,362.085632 293.028320,361.056458 298.518921,362.424042 
	C300.160034,362.832825 301.289642,363.216980 301.500397,364.999939 
	C301.903717,368.411713 304.367310,368.530334 307.000092,368.512085 
	C312.666473,368.472809 318.334137,368.439911 323.999786,368.515656 
	C330.632233,368.604309 330.381714,367.192505 330.520691,362.500610 
	C330.542999,361.747009 330.839935,361.001495 331.030518,360.161407 
	C337.454681,357.862152 344.335754,357.962189 351.014221,357.111725 
	C376.483917,353.868530 401.414032,348.150604 425.961121,340.868927 
	C438.582520,337.124878 451.017792,332.619873 463.017120,327.036774 
	C471.750610,322.973206 479.558228,317.955505 483.989563,308.994843 
	C490.270020,296.295074 487.737244,284.244629 480.426331,273.048126 
	C470.824951,258.343781 456.672363,250.501038 439.496094,248.027023 
	C417.235046,244.820602 395.437408,239.872803 374.500000,231.500000 
"/>
<path fill="none" opacity="1.000000" stroke="#000000" stroke-linecap="round" stroke-linejoin="round" stroke-width="6.000000"
	d="
M207.500000,175.000000 
	C194.264908,190.308472 178.326523,202.211258 161.044373,212.573990 
	C149.650375,219.406067 137.334213,223.699539 124.472855,225.836639 
	C103.763535,229.277771 84.051613,225.321960 66.055054,214.409210 
	C58.990913,210.125671 51.600521,207.477692 43.500000,206.500000 
"/>
<path fill="none" opacity="1.000000" stroke="#000000" stroke-linecap="round" stroke-linejoin="round" stroke-width="9.000000"
	d="
M214.500000,149.500000 
	C213.000000,148.166672 211.558838,146.759140 209.988998,145.513870 
	C205.229294,141.738297 203.203186,141.619431 196.129074,144.448380 
	C188.790390,139.998825 181.733063,135.387573 173.016907,133.900909 
	C164.077454,132.376175 157.630325,134.534927 154.117325,142.551422 
	C149.875580,152.230896 148.817642,162.493469 150.961700,173.007812 
	C151.999237,178.095871 154.898804,181.410599 159.494537,183.511932 
	C162.360352,184.822266 165.037399,186.433838 167.000000,189.000000 
"/>
<path fill="none" opacity="1.000000" stroke="#000000" stroke-linecap="round" stroke-linejoin="round" stroke-width="9.000000"
	d="
M49.000000,189.000000 
	C45.518021,183.947922 39.515549,181.631378 35.928577,176.550415 
	C28.541830,166.087082 27.939123,157.160217 35.113827,147.585297 
	C40.157642,140.854126 51.816582,139.315338 59.984467,146.018921 
	C64.456543,149.689255 67.159920,154.677795 68.891159,160.035172 
	C69.882874,163.104050 70.998589,164.546539 74.498459,164.600357 
	C82.779480,164.727707 88.471191,169.443802 93.026070,175.981842 
	C97.976280,183.087341 102.880310,190.225204 109.468430,196.035797 
	C115.074890,200.980606 122.163490,203.615829 128.850296,205.023575 
	C135.098541,206.339020 142.231476,203.567322 148.458389,200.902740 
	C155.145691,198.041168 162.441559,195.925125 167.018143,189.512939 
	C167.209442,189.244904 167.655914,189.048599 168.001556,189.017120 
	C178.918961,188.023102 183.409744,179.436920 187.871567,171.428436 
	C192.397476,163.304932 195.703262,154.548782 196.000000,145.000000 
"/>
<path fill="none" opacity="1.000000" stroke="#000000" stroke-linecap="round" stroke-linejoin="round" stroke-width="6.000000"
	d="
M203.000000,169.000000 
	C209.022003,176.217010 218.025299,179.023422 225.636932,183.780930 
	C238.640488,191.908524 252.673904,198.371124 265.907013,206.158005 
	C270.629486,208.936890 275.698517,210.599899 280.502045,212.995911 
	C302.683807,224.060150 325.552032,233.482208 349.003021,241.491135 
	C367.562988,247.829666 386.533600,252.510925 406.011017,254.910507 
	C409.094116,255.290359 412.651764,256.007812 415.429962,254.380432 
	C418.782867,252.416428 416.017059,248.318604 417.500000,245.500000 
"/>
<path fill="none" opacity="1.000000" stroke="#000000" stroke-linecap="round" stroke-linejoin="round" stroke-width="6.000000"
	d="
M179.500000,241.500000 
	C174.266006,241.708969 169.695877,244.390656 165.087326,246.220016 
	C150.171982,252.140625 135.104431,257.616211 119.982933,262.951630 
	C114.000481,265.062469 107.795082,266.042297 101.910927,264.077759 
	C99.033653,258.420197 99.678726,252.934708 102.000000,247.500000 
"/>
<path fill="none" opacity="1.000000" stroke="#000000" stroke-linecap="round" stroke-linejoin="round" stroke-width="4.000000"
	d="
M351.500000,304.500000 
	C343.996246,304.500000 336.492523,304.500000 328.171143,304.500000 
	C334.963623,312.221069 341.412262,318.944672 349.175781,325.408051 
	C350.354095,315.692871 351.410217,306.844360 352.505920,298.000732 
	C353.227936,292.173401 353.562195,286.208984 354.729645,280.547363 
	C356.651001,271.229370 353.179047,263.288910 350.704742,254.833694 
	C340.930084,256.999329 332.020874,260.911316 323.105743,264.727997 
	C324.770142,268.826508 325.643921,273.319031 325.500000,278.000000 
"/>
<path fill="none" opacity="1.000000" stroke="#000000" stroke-linecap="round" stroke-linejoin="round" stroke-width="4.000000"
	d="
M297.500000,296.500000 
	C297.235596,303.605072 295.599518,310.521118 294.683441,317.523987 
	C293.965881,323.009033 292.826324,328.485321 292.634613,334.004669 
	C292.544006,336.614380 291.122925,338.905273 291.500000,341.500000 
"/>
<path fill="none" opacity="1.000000" stroke="#000000" stroke-linecap="round" stroke-linejoin="round" stroke-width="4.000000"
	d="
M209.500000,312.500000 
	C214.503616,309.237244 216.193161,303.502197 219.368774,298.909271 
	C221.307571,296.105194 224.280502,293.627319 224.190552,289.495850 
	C224.171524,288.621674 225.943039,286.494995 227.991486,287.032440 
	C230.508636,287.692841 229.105392,289.813232 228.903656,290.983398 
	C227.340927,300.048737 230.325897,308.950409 229.645874,318.010956 
	C229.323837,322.301636 230.555405,326.708954 231.130966,331.458405 
	C219.230011,335.834076 206.455185,339.333954 194.500000,345.000000 
"/>
<path fill="none" opacity="1.000000" stroke="#000000" stroke-linecap="round" stroke-linejoin="round" stroke-width="7.000000"
	d="
M282.500000,177.000000 
	C281.604126,167.400497 271.466522,161.340500 262.488037,164.970413 
	C261.006378,165.569458 260.063477,166.233063 259.968842,167.998337 
	C259.718445,172.669281 258.640289,177.265747 258.964203,182.002441 
	C259.299011,186.897705 261.369995,188.306427 265.489471,185.981369 
	C270.818604,182.973602 275.782654,179.317337 281.685516,177.021347 
	C283.654724,177.596786 284.864594,179.256500 286.000000,181.000000 
"/>
<path fill="none" opacity="1.000000" stroke="#000000" stroke-linecap="round" stroke-linejoin="round" stroke-width="4.000000"
	d="
M57.000000,323.500000 
	C59.415512,318.208435 55.711571,313.540588 55.376415,308.508240 
	C55.152245,305.142395 53.751240,301.854950 52.817245,298.305878 
	C61.210907,294.557343 69.726166,291.431641 79.122139,288.497467 
	C78.146400,294.841980 74.931709,299.706573 72.949966,304.981201 
	C70.665283,311.062103 68.220154,317.107697 65.368874,322.935852 
	C64.487732,324.736908 64.581657,326.282990 64.500000,328.000000 
"/>
<path fill="none" opacity="1.000000" stroke="#000000" stroke-linecap="round" stroke-linejoin="round" stroke-width="4.000000"
	d="
M181.500000,242.500000 
	C191.238159,246.935364 200.107620,252.939728 209.496414,258.006653 
	C212.397278,259.572205 215.013351,261.761627 218.500000,262.000000 
"/>
<path fill="none" opacity="1.000000" stroke="#000000" stroke-linecap="round" stroke-linejoin="round" stroke-width="4.000000"
	d="
M126.500000,283.500000 
	C128.034271,288.171936 125.487167,292.386383 124.259094,296.426788 
	C121.847305,304.361603 119.536995,312.345001 117.000000,320.250000 
"/>
<path fill="none" opacity="1.000000" stroke="#000000" stroke-linecap="round" stroke-linejoin="round" stroke-width="4.000000"
	d="
M74.750000,250.000000 
	C73.238937,254.272324 74.798820,258.537445 75.718163,262.448730 
	C77.440285,269.775360 77.641937,277.425995 80.448708,284.520294 
	C81.092697,286.147980 80.385231,287.795074 79.000000,289.000000 
"/>
<path fill="none" opacity="1.000000" stroke="#000000" stroke-linecap="round" stroke-linejoin="round" stroke-width="4.000000"
	d="
M212.750000,226.000000 
	C211.181610,231.251038 213.850708,236.075745 214.745529,240.954971 
	C216.002060,247.806656 218.039825,254.548172 219.000000,261.500000 
"/>
<path fill="none" opacity="1.000000" stroke="#000000" stroke-linecap="round" stroke-linejoin="round" stroke-width="4.000000"
	d="
M266.000000,264.000000 
	C261.533234,263.512207 257.989502,265.414001 254.461380,267.946198 
	C247.929611,272.634155 241.224808,277.090332 234.462860,281.442291 
	C232.555618,282.669769 230.849518,283.849518 230.000000,286.000000 
"/>
<path fill="none" opacity="1.000000" stroke="#000000" stroke-linecap="round" stroke-linejoin="round" stroke-width="4.000000"
	d="
M253.500000,324.000000 
	C263.333313,329.500000 273.224792,334.900513 282.950531,340.584625 
	C284.876221,341.710083 286.426331,342.488556 288.500000,341.500000 
"/>
<path fill="none" opacity="1.000000" stroke="#000000" stroke-linecap="round" stroke-linejoin="round" stroke-width="4.000000"
	d="
M291.500000,224.500000 
	C286.749664,224.009399 283.102386,226.995834 279.013306,228.535324 
	C270.469391,231.752029 262.000000,235.166672 253.500000,238.500000 
"/>
<path fill="none" opacity="1.000000" stroke="#000000" stroke-linecap="round" stroke-linejoin="round" stroke-width="7.000000"
	d="
M226.000000,140.500000 
	C229.302734,141.148956 231.455856,143.706024 233.951904,145.564590 
	C242.907867,152.233215 251.666672,159.166656 260.500000,166.000000 
"/>
<path fill="none" opacity="1.000000" stroke="#000000" stroke-linecap="round" stroke-linejoin="round" stroke-width="4.000000"
	d="
M168.500015,262.500031 
	C157.500015,267.500031 146.495682,272.490570 135.509628,277.521027 
	C134.769241,277.860046 134.166656,278.500000 133.499985,279.000000 
"/>
<path fill="none" opacity="1.000000" stroke="#000000" stroke-linecap="round" stroke-linejoin="round" stroke-width="4.000000"
	d="
M33.500000,244.000000 
	C34.868397,243.886154 35.927872,244.743988 37.506729,244.687241 
	C48.536991,244.290741 59.550293,244.529907 70.523697,246.357742 
	C74.535278,247.025940 76.361504,250.009048 78.901993,252.118057 
	C82.776047,255.334152 86.040962,259.295349 89.488342,263.010803 
	C92.856583,266.641022 97.092781,267.214722 101.500000,264.500000 
"/>
<path fill="none" opacity="1.000000" stroke="#000000" stroke-linecap="round" stroke-linejoin="round" stroke-width="4.000000"
	d="
M189.500000,312.000000 
	C187.952164,313.612518 188.589127,315.631317 188.510925,317.500458 
	C188.127502,326.665161 189.402435,335.890381 187.500000,345.000000 
"/>
<path fill="none" opacity="1.000000" stroke="#000000" stroke-linecap="round" stroke-linejoin="round" stroke-width="4.000000"
	d="
M294.500000,221.000000 
	C289.438110,232.501114 280.541809,241.368408 273.351013,251.393127 
	C271.478577,254.003510 271.144287,257.195740 269.000000,259.500000 
"/>
<path fill="none" opacity="1.000000" stroke="#000000" stroke-linecap="round" stroke-linejoin="round" stroke-width="4.000000"
	d="
M132.750000,279.000000 
	C132.550964,281.060608 133.954361,281.272675 135.497238,281.517395 
	C143.669785,282.813690 151.819504,284.263550 160.009644,285.432373 
	C162.077789,285.727570 163.521149,287.233521 165.500000,287.500000 
"/>
<path fill="none" opacity="1.000000" stroke="#000000" stroke-linecap="round" stroke-linejoin="round" stroke-width="4.000000"
	d="
M105.000000,282.500000 
	C99.282639,282.304504 93.907959,284.362061 88.559456,285.732086 
	C82.132309,287.378448 76.935638,286.211670 71.461838,283.066406 
	C63.645023,278.574860 55.566563,274.538635 47.259163,270.127045 
	C55.196274,262.695648 63.320324,255.309967 70.500000,247.000000 
"/>
<path fill="none" opacity="1.000000" stroke="#000000" stroke-linecap="round" stroke-linejoin="round" stroke-width="4.000000"
	d="
M411.000000,269.500000 
	C410.000000,274.833344 408.823425,280.140991 408.043945,285.506378 
	C407.030792,292.480255 406.651855,299.558350 405.383911,306.478729 
	C404.587921,310.823059 404.700439,314.878662 406.000000,319.000000 
"/>
<path fill="none" opacity="1.000000" stroke="#000000" stroke-linecap="round" stroke-linejoin="round" stroke-width="4.000000"
	d="
M175.500000,214.500000 
	C183.666672,216.000000 191.808807,217.660187 200.012833,218.916199 
	C203.028717,219.377914 205.897537,220.326920 208.430573,221.634491 
	C212.500336,223.735352 216.351395,221.009796 220.601395,222.107361 
	C224.879654,223.212219 229.765137,223.758865 234.502625,223.563461 
	C239.414459,223.360886 241.526855,225.524246 241.461349,230.499496 
	C241.364792,237.832993 241.944885,245.179108 241.068344,252.508179 
	C240.958649,253.425369 241.781570,254.454117 242.253159,255.633163 
	C233.513092,264.200531 226.577362,274.542786 215.517258,280.531860 
	C215.213913,280.696106 215.166672,281.333344 215.000000,281.750000 
"/>
<path fill="none" opacity="1.000000" stroke="#000000" stroke-linecap="round" stroke-linejoin="round" stroke-width="4.000000"
	d="
M309.500000,286.000000 
	C309.399231,281.398224 312.119995,277.992523 314.540771,274.528503 
	C316.159668,272.211975 318.231018,270.217316 319.985718,267.988770 
	C323.027222,264.125885 322.748505,262.700348 318.498871,259.501495 
	C314.504150,256.494476 310.400116,253.622330 306.530304,250.462875 
	C303.188049,247.734116 299.944611,248.810883 296.492096,249.976608 
	C289.351654,252.387573 282.133057,254.571503 275.028412,257.080414 
	C273.609772,257.581390 272.320648,257.231781 271.000000,257.500000 
"/>
<path fill="none" opacity="1.000000" stroke="#000000" stroke-linecap="round" stroke-linejoin="round" stroke-width="4.000000"
	d="
M230.999985,290.500000 
	C236.833328,299.166687 242.603409,307.877136 248.550995,316.464661 
	C249.807037,318.278198 250.678665,320.572540 253.000000,321.500000 
"/>
<path fill="none" opacity="1.000000" stroke="#000000" stroke-linecap="round" stroke-linejoin="round" stroke-width="7.000000"
	d="
M313.500000,197.500000 
	C312.327301,200.903900 311.722076,204.389236 312.000427,207.999969 
	C312.418640,213.425308 317.539673,216.101242 321.952454,212.933762 
	C324.707642,210.956100 326.998932,208.332184 329.499207,205.999146 
	C326.353088,196.968140 321.605682,194.297729 313.601532,196.966156 
	C309.815765,194.863052 306.741760,191.693405 302.500000,190.500000 
"/>
<path fill="none" opacity="1.000000" stroke="#000000" stroke-linecap="round" stroke-linejoin="round" stroke-width="4.000000"
	d="
M47.500000,271.000000 
	C44.789738,278.439789 44.716099,286.482727 42.403770,293.970276 
	C40.277126,300.856567 43.227146,305.612427 46.784252,311.138855 
	C51.217361,318.026276 56.682228,323.988434 61.500000,330.500000 
"/>
<path fill="none" opacity="1.000000" stroke="#000000" stroke-linecap="round" stroke-linejoin="round" stroke-width="4.000000"
	d="
M207.500000,222.000000 
	C201.921936,227.831680 194.365494,230.805222 187.990082,235.486481 
	C187.397919,235.921295 186.628677,236.107727 186.005890,236.509109 
	C179.847031,240.478683 179.386826,241.663208 181.513062,248.996216 
	C183.451324,255.680786 185.679932,262.287201 187.407898,269.023621 
	C188.062500,271.575562 187.077988,274.469421 188.500000,277.000000 
"/>
<path fill="none" opacity="1.000000" stroke="#000000" stroke-linecap="round" stroke-linejoin="round" stroke-width="6.000000"
	d="
M40.000000,158.000000 
	C41.397274,164.939651 44.047260,171.103912 49.957752,175.556091 
	C52.057796,177.137970 53.968273,178.065231 56.500679,177.001617 
	C59.196384,175.869431 59.803070,173.123917 59.610672,171.012695 
	C58.911720,163.343018 55.225658,157.024445 48.947742,152.573715 
	C45.619030,150.213821 42.019508,152.421219 40.000000,157.500000 
"/>
<path fill="none" opacity="1.000000" stroke="#000000" stroke-linecap="round" stroke-linejoin="round" stroke-width="4.000000"
	d="
M130.000000,283.000000 
	C132.833344,288.166656 135.497803,293.435638 138.547699,298.471100 
	C141.569107,303.459503 143.138138,309.317108 147.531998,313.708252 
	C144.966125,315.898346 141.697662,315.917572 138.524078,316.610291 
	C132.681442,317.885529 126.942841,319.586151 121.008759,320.553711 
	C113.926147,321.708557 109.062584,317.737396 105.688965,312.869049 
	C100.955925,306.039032 95.452164,300.181763 88.387344,296.199860 
	C85.039993,294.313202 83.862259,290.945190 81.000000,289.000000 
"/>
<path fill="none" opacity="1.000000" stroke="#000000" stroke-linecap="round" stroke-linejoin="round" stroke-width="4.000000"
	d="
M229.500000,287.500000 
	C233.569366,286.809448 237.293503,288.305969 240.985367,289.543640 
	C249.684265,292.459808 258.425262,293.792053 267.519196,291.578857 
	C268.544006,291.329437 269.817902,292.240692 271.002563,292.487671 
	C277.446686,293.831177 283.985229,293.541504 290.499603,293.466431 
	C293.241913,293.434814 295.811035,293.666962 297.998718,295.499725 
	C289.773865,299.619507 284.376801,307.425323 276.500000,312.000000 
"/>
<path fill="none" opacity="1.000000" stroke="#000000" stroke-linecap="round" stroke-linejoin="round" stroke-width="4.000000"
	d="
M321.500000,264.500000 
	C311.957275,264.367676 302.836487,267.204498 293.524475,268.656982 
	C291.825500,268.921967 290.000366,270.481262 288.445160,271.941589 
	C281.908203,278.079773 275.166656,284.000000 268.500000,290.000000 
"/>
<path fill="none" opacity="1.000000" stroke="#000000" stroke-linecap="round" stroke-linejoin="round" stroke-width="4.000000"
	d="
M329.500000,264.000000 
	C334.398804,267.097412 340.310303,267.216614 345.550842,269.376678 
	C346.736115,269.865265 348.325836,269.735931 348.960083,271.019714 
	C350.742310,274.626862 353.427460,274.730072 357.018951,274.109741 
	C362.439331,273.173462 367.048950,276.507568 371.986786,278.042511 
	C376.714691,279.512177 381.333344,281.333313 386.000000,283.000000 
"/>
<path fill="none" opacity="1.000000" stroke="#000000" stroke-linecap="round" stroke-linejoin="round" stroke-width="4.000000"
	d="
M291.500000,269.500000 
	C287.559204,266.241791 282.623901,265.088837 277.955444,263.643951 
	C274.493286,262.572418 271.695770,259.219360 267.465546,260.373718 
	C267.056732,260.485291 266.071136,258.892303 265.514679,257.990936 
	C259.542175,248.316833 252.776016,239.207428 245.441727,230.549362 
	C241.933365,226.407761 239.775238,226.959183 237.006317,232.003464 
	C233.812469,237.821884 229.966797,243.403595 227.653519,249.557709 
	C223.522751,260.546997 215.813507,266.932465 205.029266,270.586395 
	C200.389084,272.158569 195.431244,273.395264 191.955948,277.462372 
	C190.423447,279.255859 188.079865,277.274567 185.934143,278.371124 
	C180.295731,281.252563 174.369415,283.590668 168.474670,285.936340 
	C166.997849,286.523987 165.824142,287.374359 165.041565,288.528198 
	C159.437332,296.791321 153.947113,305.131744 148.457901,313.391571 
	C149.147400,315.538544 150.808533,315.528351 152.500076,315.505585 
	C154.333069,315.480896 156.188232,315.681396 157.996017,315.466553 
	C163.814041,314.775024 168.174774,316.321930 171.113800,321.940460 
	C173.192642,325.914612 176.041122,329.601746 179.088150,332.919037 
	C181.749084,335.816010 182.685379,338.801117 182.000000,342.500000 
"/>
<path fill="none" opacity="1.000000" stroke="#000000" stroke-linecap="round" stroke-linejoin="round" stroke-width="4.000000"
	d="
M316.000000,315.500000 
	C315.962769,318.943268 314.603210,321.643250 312.043335,324.046173 
	C307.062134,328.721985 302.186829,333.532288 297.570740,338.564911 
	C295.673462,340.633362 293.470581,341.397736 291.000000,342.000000 
"/>
<path fill="none" opacity="1.000000" stroke="#000000" stroke-linecap="round" stroke-linejoin="round" stroke-width="4.000000"
	d="
M265.500000,293.500000 
	C273.735046,308.059143 280.238098,323.465149 287.588440,338.456635 
	C288.244446,339.794556 288.181427,342.485229 291.000000,342.000000 
"/>
<path fill="none" opacity="1.000000" stroke="#000000" stroke-linecap="round" stroke-linejoin="round" stroke-width="4.000000"
	d="
M106.500000,244.500000 
	C104.889671,245.134735 103.189842,245.608383 101.997528,247.007080 
	C101.329247,246.674667 100.694695,246.134933 99.995392,246.031021 
	C92.189445,244.871094 84.331711,245.745224 76.498436,245.569717 
	C75.676727,245.551315 74.833336,246.500000 74.000000,247.000000 
"/>
<path fill="none" opacity="1.000000" stroke="#000000" stroke-linecap="round" stroke-linejoin="round" stroke-width="4.000000"
	d="
M268.500000,212.000000 
	C258.787964,215.595383 249.035797,219.111969 241.000000,226.000000 
"/>
<path fill="none" opacity="1.000000" stroke="#000000" stroke-linecap="round" stroke-linejoin="round" stroke-width="4.000000"
	d="
M352.000000,275.500000 
	C347.378082,283.796967 340.269653,290.115753 334.453766,297.463409 
	C332.937103,299.379517 331.318359,301.156677 330.500000,303.500000 
"/>
<path fill="none" opacity="1.000000" stroke="#000000" stroke-linecap="round" stroke-linejoin="round" stroke-width="4.000000"
	d="
M373.500000,304.000000 
	C381.166656,309.000000 388.763184,314.112335 396.525421,318.959290 
	C401.442261,322.029449 406.836456,320.398895 410.873749,317.803619 
	C418.640381,312.811005 425.666656,306.666656 433.000000,301.000000 
"/>
<path fill="none" opacity="1.000000" stroke="#000000" stroke-linecap="round" stroke-linejoin="round" stroke-width="4.000000"
	d="
M267.500000,261.000000 
	C265.593445,264.696533 266.832855,268.666779 266.513275,272.501099 
	C266.138550,276.997528 267.267365,281.592468 265.518524,286.007324 
	C264.675629,288.135132 266.778870,289.590607 267.000000,291.500000 
"/>
<path fill="none" opacity="1.000000" stroke="#000000" stroke-linecap="round" stroke-linejoin="round" stroke-width="4.000000"
	d="
M421.000000,289.000000 
	C416.204346,297.765198 412.731018,307.228973 407.000000,315.500000 
"/>
<path fill="none" opacity="1.000000" stroke="#000000" stroke-linecap="round" stroke-linejoin="round" stroke-width="4.000000"
	d="
M358.000000,277.000000 
	C362.771515,284.934143 367.076233,293.114319 371.047607,301.477386 
	C371.444305,302.312836 371.752136,302.833344 371.000000,303.500000 
"/>
<path fill="none" opacity="1.000000" stroke="#000000" stroke-linecap="round" stroke-linejoin="round" stroke-width="4.000000"
	d="
M264.000000,265.000000 
	C260.166656,271.666656 256.478790,278.424072 252.411499,284.944794 
	C251.189163,286.904449 250.255936,288.877960 249.500000,291.000000 
"/>
<path fill="none" opacity="1.000000" stroke="#000000" stroke-linecap="round" stroke-linejoin="round" stroke-width="4.000000"
	d="
M265.000000,295.500000 
	C261.862061,300.079102 260.524048,305.442963 258.525787,310.510162 
	C254.536285,320.626831 249.273376,330.023834 242.438019,338.449707 
	C239.161270,342.488922 237.422791,347.824554 232.500000,350.500000 
"/>
<path fill="none" opacity="1.000000" stroke="#000000" stroke-linecap="round" stroke-linejoin="round" stroke-width="4.000000"
	d="
M132.000000,280.500000 
	C123.111046,283.394745 116.048157,289.427063 108.622498,294.673401 
	C105.192474,297.096741 101.176849,298.311310 98.000000,301.000000 
"/>
<path fill="none" opacity="1.000000" stroke="#000000" stroke-linecap="round" stroke-linejoin="round" stroke-width="4.000000"
	d="
M384.000000,257.500000 
	C385.811768,259.363953 385.488068,261.727509 385.494232,264.000031 
	C385.511017,270.166626 385.500000,276.333344 385.500000,282.500000 
"/>
<path fill="none" opacity="1.000000" stroke="#000000" stroke-linecap="round" stroke-linejoin="round" stroke-width="4.000000"
	d="
M172.500000,212.500000 
	C173.777206,212.611832 174.939117,213.507812 174.919800,214.498444 
	C174.772247,222.066956 178.057312,229.057693 178.454620,236.502426 
	C178.543076,238.159760 180.247910,238.596436 180.500000,240.000000 
"/>
<path fill="none" opacity="1.000000" stroke="#000000" stroke-linecap="round" stroke-linejoin="round" stroke-width="4.000000"
	d="
M434.000000,283.500000 
	C440.253937,284.006805 445.601837,280.561218 451.493073,279.462921 
	C453.347015,279.117279 455.119202,278.333344 456.925293,277.751160 
	C459.707855,281.972137 462.425323,285.941467 464.971832,290.017609 
	C466.380005,292.271637 467.046112,294.540497 463.000122,294.490997 
	C456.976349,294.417358 451.308868,296.581360 445.569824,297.822754 
	C442.155426,298.561340 438.686676,297.522369 435.500000,299.000000 
"/>
<path fill="none" opacity="1.000000" stroke="#000000" stroke-linecap="round" stroke-linejoin="round" stroke-width="4.000000"
	d="
M385.000000,252.500000 
	C385.059296,255.024857 384.023224,256.405396 381.551086,257.605255 
	C373.550812,261.488098 365.872559,265.998932 358.500000,271.000000 
"/>
<path fill="none" opacity="1.000000" stroke="#000000" stroke-linecap="round" stroke-linejoin="round" stroke-width="4.000000"
	d="
M89.499992,308.000000 
	C82.999992,313.666656 76.478844,319.309387 70.016899,325.019135 
	C68.635513,326.239716 67.241898,327.365692 65.499489,327.998596 
	C62.459503,329.102844 60.815670,331.167267 61.000000,334.500000 
"/>
<path fill="none" opacity="1.000000" stroke="#000000" stroke-linecap="round" stroke-linejoin="round" stroke-width="4.000000"
	d="
M464.000000,295.000000 
	C464.000000,295.666656 464.286865,296.578552 463.957581,296.963745 
	C457.589905,304.412720 451.150116,311.800018 444.389557,319.586609 
	C440.472198,312.856140 436.587219,306.639038 434.500000,299.500000 
"/>
<path fill="none" opacity="1.000000" stroke="#000000" stroke-linecap="round" stroke-linejoin="round" stroke-width="4.000000"
	d="
M270.000000,210.000000 
	C268.120483,217.929367 262.299561,223.648468 258.431427,230.461060 
	C257.322632,232.413910 255.613617,233.991791 256.000000,236.500000 
"/>
<path fill="none" opacity="1.000000" stroke="#000000" stroke-linecap="round" stroke-linejoin="round" stroke-width="4.000000"
	d="
M450.500000,278.000000 
	C448.889160,275.526947 446.078888,276.278442 443.990723,276.145294 
	C434.324249,275.529022 425.701233,271.198944 416.502777,268.988434 
	C412.776520,268.092926 409.283875,268.433044 405.997894,270.496643 
	C399.379456,274.653015 392.359100,278.205322 386.500000,283.500000 
"/>
<path fill="none" opacity="1.000000" stroke="#000000" stroke-linecap="round" stroke-linejoin="round" stroke-width="4.000000"
	d="
M36.500000,245.500000 
	C39.241817,250.654617 41.444981,256.039886 43.541336,261.484070 
	C44.555801,264.118622 45.483574,266.864319 47.500000,269.000000 
"/>
<path fill="none" opacity="1.000000" stroke="#000000" stroke-linecap="round" stroke-linejoin="round" stroke-width="6.000000"
	d="
M286.000000,181.500000 
	C283.753510,188.345932 284.845184,194.703491 289.027954,200.479752 
	C291.223450,203.511612 293.884338,203.486267 295.968384,200.478104 
	C297.625153,198.086716 299.085785,195.546844 300.481689,192.989990 
	C303.196075,188.018158 300.548431,182.574631 295.019012,180.935806 
	C292.078339,180.064240 289.333344,180.161606 286.500000,181.000000 
"/>
<path fill="none" opacity="1.000000" stroke="#000000" stroke-linecap="round" stroke-linejoin="round" stroke-width="4.000000"
	d="
M292.000000,270.500000 
	C293.500000,275.666656 295.325562,280.769257 296.360840,286.027405 
	C296.868469,288.605774 297.975403,290.734985 299.000000,293.000000 
"/>
<path fill="none" opacity="1.000000" stroke="#000000" stroke-linecap="round" stroke-linejoin="round" stroke-width="4.000000"
	d="
M242.500000,256.000000 
	C250.022034,256.635010 257.374054,258.800293 265.000000,258.500000 
"/>
<path fill="none" opacity="1.000000" stroke="#000000" stroke-linecap="round" stroke-linejoin="round" stroke-width="7.000000"
	d="
M358.500000,223.000000 
	C357.877533,227.615051 361.432373,234.570129 365.538483,235.879333 
	C366.970428,236.335907 369.064941,236.773666 370.522736,235.018890 
	C371.572571,233.755173 372.833313,232.666641 373.699615,231.800323 
	C372.986511,225.820068 369.874664,222.207367 364.003265,221.230453 
	C362.784088,221.027588 361.677765,220.737793 360.487640,221.480194 
	C356.585876,223.914108 353.343170,220.875214 352.772583,218.436234 
	C351.151672,211.508133 346.182373,209.299896 340.483185,207.554962 
	C339.699402,207.314987 340.186340,206.693588 339.750000,206.500000 
"/>
<path fill="none" opacity="1.000000" stroke="#000000" stroke-linecap="round" stroke-linejoin="round" stroke-width="6.000000"
	d="
M350.000000,273.500000 
	C344.666656,275.166687 339.369598,276.964630 333.986420,278.450836 
	C330.744324,279.345947 328.385437,281.462616 325.731598,283.051788 
	C321.854980,285.373199 317.294556,289.962189 311.465210,286.559570 
	C310.719360,286.124207 309.108154,286.071960 308.564087,286.570007 
	C305.227936,289.624023 300.701080,291.179779 298.000000,295.000000 
"/>
<path fill="none" opacity="1.000000" stroke="#000000" stroke-linecap="round" stroke-linejoin="round" stroke-width="4.000000"
	d="
M186.500000,274.000000 
	C181.945267,273.336212 179.214508,269.588135 175.527710,267.452179 
	C173.389206,266.213226 171.625061,264.315369 169.127258,263.945343 
	C167.429337,271.260345 167.193024,278.611633 167.500000,286.000000 
"/>
<path fill="none" opacity="1.000000" stroke="#000000" stroke-linecap="round" stroke-linejoin="round" stroke-width="4.000000"
	d="
M370.500000,304.500000 
	C364.338043,311.557709 358.928772,319.427521 350.000000,323.500000 
"/>
<path fill="none" opacity="1.000000" stroke="#000000" stroke-linecap="round" stroke-linejoin="round" stroke-width="4.000000"
	d="
M223.500000,289.500000 
	C220.276428,288.691071 218.335587,291.324921 216.059769,292.606171 
	C208.567627,296.824097 201.348663,301.525238 193.994522,305.990967 
	C189.203613,308.900238 187.841415,308.859009 184.029037,304.971527 
	C178.581604,299.416748 173.333344,293.666656 168.000000,288.000000 
"/>
<path fill="none" opacity="1.000000" stroke="#000000" stroke-linecap="round" stroke-linejoin="round" stroke-width="4.000000"
	d="
M187.500000,309.500000 
	C180.943283,312.147461 173.782791,313.069885 167.500000,316.500000 
"/>
<path fill="none" opacity="1.000000" stroke="#000000" stroke-linecap="round" stroke-linejoin="round" stroke-width="4.000000"
	d="
M299.000000,296.000000 
	C305.595215,301.502533 310.592010,308.435211 316.053650,315.065002 
	C322.495392,315.327179 323.730713,308.640961 328.000000,306.000000 
"/>
<path fill="none" opacity="1.000000" stroke="#000000" stroke-linecap="round" stroke-linejoin="round" stroke-width="4.000000"
	d="
M321.000000,315.000000 
	C327.592194,321.247162 333.360138,328.385437 341.191223,333.629150 
	C343.652313,330.801056 347.436798,329.101074 348.500000,325.000000 
"/>
<path fill="none" opacity="1.000000" stroke="#000000" stroke-linecap="round" stroke-linejoin="round" stroke-width="4.000000"
	d="
M389.000000,282.500000 
	C394.422272,285.631714 400.668793,285.369019 406.538849,286.237335 
	C409.316711,286.648254 412.052856,287.602600 414.990845,287.723022 
	C418.103088,287.850555 421.002777,289.312134 424.030609,287.040802 
	C428.168549,283.936676 433.892548,282.427734 434.500000,276.000000 
"/>
<path fill="none" opacity="1.000000" stroke="#000000" stroke-linecap="round" stroke-linejoin="round" stroke-width="4.000000"
	d="
M212.500000,223.500000 
	C216.166656,227.500000 219.686462,231.649719 223.554672,235.444260 
	C225.902145,237.747040 227.565582,240.911514 231.000000,242.000000 
"/>
<path fill="none" opacity="1.000000" stroke="#000000" stroke-linecap="round" stroke-linejoin="round" stroke-width="4.000000"
	d="
M125.500000,282.000000 
	C123.555862,279.683746 120.769371,280.159637 118.526817,280.628326 
	C114.677795,281.432709 110.859856,281.471649 107.000000,281.500000 
"/>
<path fill="none" opacity="1.000000" stroke="#000000" stroke-linecap="round" stroke-linejoin="round" stroke-width="4.000000"
	d="
M203.000015,325.000000 
	C199.000015,331.000000 195.000015,337.000000 191.000015,343.000000 
"/>
<path fill="none" opacity="1.000000" stroke="#000000" stroke-linecap="round" stroke-linejoin="round" stroke-width="4.000000"
	d="
M203.000000,301.500000 
	C207.666672,310.166656 212.333328,318.833344 217.000000,327.500000 
	C218.166672,329.666656 219.333328,331.833344 220.500000,334.000000 
"/>
<path fill="none" opacity="1.000000" stroke="#000000" stroke-linecap="round" stroke-linejoin="round" stroke-width="4.000000"
	d="
M250.000000,326.000000 
	C245.717621,324.767731 242.530472,328.357422 238.508118,328.622955 
	C236.296066,328.769012 234.166672,330.166656 232.000000,331.000000 
"/>
<path fill="none" opacity="1.000000" stroke="#000000" stroke-linecap="round" stroke-linejoin="round" stroke-width="7.000000"
	d="
M225.000000,135.500000 
	C226.569138,139.027649 223.957169,140.754791 222.053635,143.044586 
	C215.361099,151.095078 208.669144,159.154434 202.943542,167.963303 
	C201.782227,169.749954 199.470734,169.503784 197.500000,169.500000 
"/>
<path fill="none" opacity="1.000000" stroke="#000000" stroke-linecap="round" stroke-linejoin="round" stroke-width="3.000000"
	d="
M451.500000,280.500000 
	C451.175781,284.204193 448.099457,286.001373 446.027740,288.522797 
	C443.359009,291.770966 439.018097,293.647339 438.000000,298.250000 
"/>
<path fill="none" opacity="1.000000" stroke="#000000" stroke-linecap="round" stroke-linejoin="round" stroke-width="4.000000"
	d="
M193.000000,277.500000 
	C199.997025,279.013885 206.744370,281.400726 213.972336,282.238617 
	C218.312088,282.741699 222.913757,283.863617 227.047363,286.313934 
	C226.955856,282.379913 226.236023,278.962524 224.000000,276.000000 
"/>
<path fill="none" opacity="1.000000" stroke="#000000" stroke-linecap="round" stroke-linejoin="round" stroke-width="4.000000"
	d="
M230.000000,333.000000 
	C230.666672,339.000000 231.333328,345.000000 232.000000,351.000000 
"/>
<path fill="none" opacity="1.000000" stroke="#000000" stroke-linecap="round" stroke-linejoin="round" stroke-width="4.000000"
	d="
M385.000000,285.000000 
	C381.000000,290.666656 377.000000,296.333344 373.000000,302.000000 
"/>
<path fill="none" opacity="1.000000" stroke="#000000" stroke-linecap="round" stroke-linejoin="round" stroke-width="4.000000"
	d="
M269.000000,266.000000 
	C272.329376,271.041962 272.702057,277.248688 275.500000,282.500000 
"/>
<path fill="none" opacity="1.000000" stroke="#000000" stroke-linecap="round" stroke-linejoin="round" stroke-width="4.000000"
	d="
M412.000000,271.500000 
	C416.020386,276.443420 417.889862,282.560089 421.000000,288.000000 
"/>
<path fill="none" opacity="1.000000" stroke="#000000" stroke-linecap="round" stroke-linejoin="round" stroke-width="4.000000"
	d="
M326.000000,284.500000 
	C326.500000,288.000000 327.105042,291.489441 327.458405,295.004181 
	C327.653015,296.940247 327.918701,299.053589 326.000000,300.500000 
"/>
<path fill="none" opacity="1.000000" stroke="#000000" stroke-linecap="round" stroke-linejoin="round" stroke-width="4.000000"
	d="
M92.000008,268.000000 
	C88.666672,273.333344 85.333336,278.666656 82.000008,284.000000 
"/>
<path fill="none" opacity="1.000000" stroke="#000000" stroke-linecap="round" stroke-linejoin="round" stroke-width="4.000000"
	d="
M100.000000,266.000000 
	C98.901649,270.522675 99.096039,274.593109 103.485016,277.522461 
	C107.257065,280.040039 106.180382,282.972534 104.650154,286.563965 
	C102.927361,290.607330 99.463989,294.100372 100.000000,299.000000 
"/>
<path fill="none" opacity="1.000000" stroke="#000000" stroke-linecap="round" stroke-linejoin="round" stroke-width="4.000000"
	d="
M217.000000,337.500000 
	C219.925278,343.474152 225.341858,347.138458 230.047241,351.448425 
	C230.368591,351.742767 231.497162,351.821991 232.000000,351.000000 
"/>
<path fill="none" opacity="1.000000" stroke="#000000" stroke-linecap="round" stroke-linejoin="round" stroke-width="7.000000"
	d="
M339.500000,208.000000 
	C335.147491,211.656570 336.954529,216.703979 337.285736,220.977859 
	C337.485535,223.556076 340.845856,225.214539 343.983643,223.470596 
	C346.728699,221.944931 349.333344,220.166656 352.000000,218.500000 
"/>
<path fill="none" opacity="1.000000" stroke="#000000" stroke-linecap="round" stroke-linejoin="round" stroke-width="4.000000"
	d="
M433.000000,282.500000 
	C434.416779,284.816650 434.526917,287.389740 434.506012,290.000061 
	C434.480652,293.166504 434.500000,296.333344 434.500000,299.500000 
"/>
<path fill="none" opacity="1.000000" stroke="#000000" stroke-linecap="round" stroke-linejoin="round" stroke-width="4.000000"
	d="
M86.000000,296.000000 
	C86.840202,302.055115 88.439804,307.608917 94.997398,310.007111 
	C98.369415,311.240295 100.892479,314.602112 105.000000,314.000000 
"/>
<path fill="none" opacity="1.000000" stroke="#000000" stroke-linecap="round" stroke-linejoin="round" stroke-width="4.000000"
	d="
M190.500000,283.000000 
	C187.573898,288.922394 188.847580,295.297058 188.473007,301.498383 
	C188.382462,302.997620 188.556931,304.455933 188.134109,306.035889 
	C187.536148,308.270172 188.124725,310.270752 190.419754,312.100647 
	C198.451614,318.504700 205.225296,326.274109 212.460800,333.539032 
	C213.251450,334.332916 213.500000,335.666656 214.000000,336.750000 
"/>
<path fill="none" opacity="1.000000" stroke="#000000" stroke-linecap="round" stroke-linejoin="round" stroke-width="4.000000"
	d="
M327.500000,280.000000 
	C325.570892,276.645569 322.239014,278.159180 320.063446,278.738312 
	C317.476288,279.427032 315.014282,279.273743 312.500000,279.500000 
"/>
<path fill="none" opacity="1.000000" stroke="#000000" stroke-linecap="round" stroke-linejoin="round" stroke-width="4.000000"
	d="
M210.500000,283.000000 
	C207.197174,286.929565 202.433792,288.911743 198.500000,292.000000 
"/>
<path fill="none" opacity="1.000000" stroke="#000000" stroke-linecap="round" stroke-linejoin="round" stroke-width="4.000000"
	d="
M316.000000,288.500000 
	C319.453400,294.716400 324.555298,299.541870 329.500000,304.500000 
"/>
<path fill="none" opacity="1.000000" stroke="#000000" stroke-linecap="round" stroke-linejoin="round" stroke-width="4.000000"
	d="
M423.000000,290.000000 
	C426.704285,293.291931 429.544861,297.533997 434.000000,300.000000 
"/>
<path fill="none" opacity="1.000000" stroke="#000000" stroke-linecap="round" stroke-linejoin="round" stroke-width="4.000000"
	d="
M190.500000,279.000000 
	C190.583344,280.000000 190.268417,281.418945 190.811554,281.935242 
	C196.295578,287.148529 198.062241,294.664307 202.500000,300.500000 
"/>
<path fill="none" opacity="1.000000" stroke="#000000" stroke-linecap="round" stroke-linejoin="round" stroke-width="4.000000"
	d="
M231.500000,245.000000 
	C235.020752,246.875107 236.629608,251.044479 240.500000,252.500000 
"/>
<path fill="none" opacity="1.000000" stroke="#000000" stroke-linecap="round" stroke-linejoin="round" stroke-width="4.000000"
	d="
M220.000000,265.500000 
	C222.360397,267.452240 221.476562,271.134735 224.000000,273.000000 
"/>
<path fill="none" opacity="1.000000" stroke="#000000" stroke-linecap="round" stroke-linejoin="round" stroke-width="3.000000"
	d="
M196.500000,293.000000 
	C194.628433,294.812866 192.580704,296.339478 190.000000,297.000000 
"/>
<path fill="none" opacity="1.000000" stroke="#000000" stroke-linecap="round" stroke-linejoin="round" stroke-width="3.000000"
	d="
M106.500000,239.500000 
	C105.817863,241.658936 102.937950,242.718979 103.500000,245.500000 
"/>
</svg>